# xmcd
#
# Track frame offsets:
#	150
#	11386
#	22348
#	31540
#	39217
#	56610
#
# Disc length: 911 seconds
#
# Revision: 1
# Processed by: cddbd v1.5.2PL0 Copyright (c) Steve Scherf et al.
# Submitted via: audiograbber 1.83.01
#
DISCID=3a038d06
DTITLE=Two Rocks and Band - The first one
DYEAR=1900
DGENRE=Country
TTITLE0=Hard working man
TTITLE1=call it Rock`n`Roll
TTITLE2=every little thing
TTITLE3=guitars and cadillacs
TTITLE4=picture
TTITLE5=Achy breaky heart
EXTD=
EXTT0=
EXTT1=
EXTT2=
EXTT3=
EXTT4=
EXTT5=
PLAYORDER=
